Patient4_TMGait_0pt3_01_left_22_EMG.mot
version=1
nRows=19
nColumns=33
inDegrees=no
endheader
time	1LAddLong	2LGlutMax	3LGlutMed	4LIliopsoas	5LSemiMemb	6LBicFemLong	7LRecFem	8LVastMed	9LVastLat	10LGasMed	11LTibAnt	12lTibPost	13LPeroneusLong	14LSol	15LExtDigLong	16LFlexDigLong	17RAddLong	18RGlutMax	19RGlutMed	20RIliopsoas	21RSemiMemb	22RBicFemLong	23RRecFem	24RVastMed	25RVastLat	26RGasMed	27RTibAnt	28RTibPost	29RPeroneusLong	30RSol	31RExtDigLong	32RFlexDigLong
43.173	0.05127	-0.04425	-0.09552	0.003815	0.007477	0.010376	0.027618	0.001221	-0.03418	-0.031281	-0.028076	0.012207	0.008545	-0.018463	-0.035553	0.002594	0.013428	0.008087	-0.014191	0.047607	-0.004272	-0.16785	-0.36438	0.24399	-0.029602	0.020142	-0.046387	0.011292	-1.2444	0.001373	0.001678	-0.001526
43.174	-0.014343	-0.04425	-0.059509	-0.004578	0.007477	0.035095	0.033722	0.005035	-0.020447	-0.020142	0.014343	0.006866	0.004578	0.001678	0.242	0.0177	0.033569	0.12009	-0.45151	0.07019	-0.031586	-0.16052	-0.25284	-0.043793	-0.024567	0.023346	-0.088501	-0.36209	-1.1888	-0.003052	-0.000305	-0.008545
43.175	-0.002136	-0.028839	0.023956	0.004578	0.002747	0.018616	0.013275	0.003662	-0.021362	-0.001831	0.015411	0.00946	0.000916	0.020752	-0.087585	0.006866	0.050354	0.14496	0.052795	-0.075073	-0.092316	-0.1683	-0.32806	-0.15732	-0.003967	0.001221	0.022278	0.051117	-0.12817	0.22247	-0.001526	-0.008698
43.176	0.007172	-0.042877	0.075378	0.010529	-0.046997	-0.041199	0.003204	0.002441	-0.021515	0.001984	-0.030823	0.018158	-0.027008	0.012665	-0.002136	0.007782	0.057068	0.13031	0.045471	-0.12634	-0.061646	-0.15503	-0.50568	0.47836	0.17395	-0.012207	0.000153	0.090485	1.0243	0.15595	-0.002747	-0.009918
43.177	0.010529	-0.071411	0.017853	0.002136	-0.029907	-0.076447	0.002136	0.000153	-0.003052	-0.007935	0.018005	0.011139	-0.023651	0.003357	0.005035	0.009918	0.071106	0.094604	0.93368	-0.12131	-0.046997	-0.11627	-0.76492	0.71381	0.18906	0.00824	-0.03952	0.061035	0.58044	-0.080872	-0.003967	-0.012817
43.178	0.014954	-0.033417	-0.020294	0.006714	-0.029755	-0.086517	0	-0.001068	-0.008087	-0.015869	0.09491	0.01236	-0.021515	0.006714	-0.032806	0.002747	0.12222	0.050507	0.28625	-0.086517	-0.11932	-0.10971	-0.77713	0.37918	0.27679	0.021057	-0.011444	0.05188	0.60745	-0.18295	-0.002441	-0.010986
43.179	0.011597	-0.06958	-0.009155	0.006104	-0.011902	-0.055847	0.016022	-0.000458	-0.015411	-0.032806	0.088959	0.007019	0.001984	0.034485	-0.043335	0.007324	0.10407	0.031891	0.25833	0.066223	-0.29053	-0.14053	-0.39856	-0.034027	0.57754	0.03418	-0.059509	0.007782	0.085449	0.28183	-0.003967	-0.000458
43.18	0.006561	-0.053253	-0.030365	0.017853	0.035858	-0.028381	0.011292	-0.002441	-0.030518	-0.0177	-0.006409	0.007477	0.003357	0.019836	0.011444	0.000763	0.06073	0.049744	-0.14465	0.027313	-0.32822	-0.14923	-0.13626	-0.28153	0.62073	0.021057	-0.066223	-0.012817	0.020752	0.38605	0.000305	-0.009003
43.181	0.001526	-0.033417	0.007019	-0.003967	0.018921	-0.00061	0.013885	0.005646	-0.024109	-0.016327	0.017395	0.011139	0.000458	0.03006	0.016937	-0.00351	0.004425	-0.03891	-0.42587	-0.12405	-0.15976	-0.13947	-0.077057	-0.45868	0.42999	-0.006866	-0.041046	-0.51376	0.04715	0.020142	-0.002594	-0.002899
43.182	0.009918	-0.015717	0.014191	-0.006561	-0.007629	-0.005646	0.028687	0.002747	-0.033569	-0.010681	-0.045624	0.011749	-0.023499	0.042114	-0.005035	0.012512	-0.029907	-0.008545	-0.69702	-0.13504	0.067749	-0.079651	-0.12787	-0.76523	0.16876	-0.01709	-0.028076	0.063782	0.12405	-0.20721	-0.001678	-0.001678
43.183	-0.007782	-0.013733	-0.016327	0.018463	-0.022736	0.018158	0.035858	0.004272	-0.052948	-0.013733	-0.050049	0.005035	-0.034637	0.032349	-0.1088	0.002899	-0.025635	0.000305	-0.74478	-0.017242	0.15121	-0.06958	-0.008392	-0.67047	0.005188	-0.011444	-0.00824	0.27741	-0.41855	-0.36545	-0.001831	-0.012054
43.184	-0.000763	0.00351	-0.044098	-0.003815	-0.040588	0.025482	0.035858	0.001373	-0.054321	-0.030823	-0.014191	0.009766	-0.03952	0.0177	-0.14206	-0.007172	-0.028687	-0.034943	-1.0672	0.11169	0.1976	-0.12756	0.028992	-0.68878	-0.16007	-0.020447	-0.039215	0.079041	-0.003357	-0.31128	-0.002136	-0.011749
43.185	-0.008087	-0.003815	-0.064697	0.00412	-0.015564	0.050812	0.041046	0.006104	-0.054169	-0.011597	-0.007477	0.011139	-0.048065	-0.047455	-0.13977	0.00061	-0.063171	-0.008087	-0.69534	0.16663	0.13733	-0.070343	-0.15457	-0.31265	-0.29556	-0.032501	0.008087	-0.075226	0.11658	0.096741	-0.000458	-0.011139
43.186	-0.001373	0.001373	-0.032196	0.006409	0.015106	0.055389	0.033417	0.005341	-0.065002	-0.011292	-0.012512	0.001678	-0.037689	-0.041199	-0.027771	-0.005188	-0.058746	-0.045013	-0.018463	0.13046	0.081329	-0.056	-0.34241	0.027466	-0.42389	-0.013733	0.005798	-0.1265	0.059662	-0.06485	0.000763	-0.011292
43.187	-0.007477	-0.028229	0.004272	0.010681	0.006104	0.042725	0.043793	0.010223	-0.051727	-0.011902	-0.033264	-0.003204	-0.004425	-0.008392	-0.030823	-0.007324	-0.042114	-0.017548	0.055389	0.12695	0.048218	-0.049896	-0.24948	0.052643	-0.17227	0.005646	-0.010071	0.19073	0.28671	-0.58029	-0.002136	-0.011597
43.188	0.007477	-0.018005	-0.068054	0.029755	0.011749	0.070496	0.031586	0.006104	-0.049133	-0.014648	-0.040588	0.001221	0.002441	-0.014954	-0.013885	-0.010681	-0.014038	0.045166	0.044708	0.097351	0.020294	-0.065308	-0.029602	-0.089264	0.017548	0.008698	0.029907	0.17899	0.41275	-0.13779	-0.001068	-0.010986
43.189	0.001984	0.009155	-0.06073	0.014496	0.001678	0.045319	0.033417	0.05249	-0.07019	-0.007172	-0.023956	0.001831	-0.006104	0.001831	-0.04303	-0.01709	-0.014343	0.23941	0.22919	0.03418	0.016479	-0.094147	0.15976	0.17334	-0.066833	-0.031433	0.13473	-0.1001	0.59708	0.29159	-0.002136	-0.013428
43.19	0.00061	-0.013275	-0.00824	-0.006104	-0.002136	0.040131	0.041046	0.018005	-0.062866	0.000153	-0.014496	0.005035	-0.011749	-0.0177	-0.053711	-0.005798	-0.002441	0.21393	-0.00351	-0.033875	0.017395	-0.082703	0.35599	0.44998	-0.15427	-0.043793	0.20523	-0.044403	1.1134	0.47882	-0.004578	-0.007477
43.191	-0.001831	-0.00824	0.068054	-0.013123	-0.006866	0.03479	0.032654	-0.023804	-0.050812	-0.009155	-0.024872	-0.005646	-0.023651	-0.046844	0.019836	-0.015717	0.008392	0.21774	-0.012665	-0.10483	0.01358	-0.071259	0.47943	0.13855	0.052338	-0.026093	0.18097	0.12802	1.2251	0.18753	-0.004578	-0.000916
